<?xml version="1.0" encoding="UTF-8" standalone="no"?>
<!DOCTYPE svg PUBLIC "-//W3C//DTD SVG 1.1//EN" "http://www.w3.org/Graphics/SVG/1.1/DTD/svg11.dtd">
<svg xmlns="http://www.w3.org/2000/svg" version="1.1" viewBox="0.00 0.00 500.00 500.00">
<g stroke-width="7.50" fill="none" stroke-linecap="butt">
<path stroke="#ffffff" vector-effect="non-scaling-stroke" d="
  M 59.31 344.99
  Q 63.01 345.00 63.32 344.95
  A 0.53 0.52 -86.5 0 0 63.75 344.56
  L 113.96 155.09
  A 0.16 0.16 0.0 0 0 113.81 154.89
  L 105.56 154.89
  A 0.25 0.24 -81.9 0 0 105.33 155.07
  Q 82.39 241.59 59.51 327.94
  Q 59.45 328.13 59.31 328.13
  Q 59.18 328.13 59.13 327.94
  Q 36.28 241.58 13.37 155.05
  A 0.25 0.24 82.0 0 0 13.14 154.87
  L 4.89 154.87
  A 0.16 0.16 0.0 0 0 4.74 155.07
  L 54.88 344.56
  A 0.53 0.52 86.5 0 0 55.31 344.95
  Q 55.62 344.99 59.31 344.99"
/>
<path stroke="#ffffff" vector-effect="non-scaling-stroke" d="
  M 22.33 154.86
  A 0.33 0.33 0.0 0 0 22.01 155.27
  L 60.77 301.43
  A 0.33 0.33 0.0 0 0 61.41 301.43
  L 65.27 286.86
  A 0.33 0.33 0.0 0 0 65.27 286.70
  L 30.38 155.11
  A 0.33 0.33 0.0 0 0 30.06 154.86
  L 22.33 154.86"
/>
<path stroke="#ffffff" vector-effect="non-scaling-stroke" d="
  M 39.27 154.88
  A 0.30 0.30 0.0 0 0 38.98 155.26
  L 69.25 269.38
  A 0.30 0.30 0.0 0 0 69.83 269.38
  L 73.73 254.64
  A 0.30 0.30 0.0 0 0 73.73 254.48
  L 47.38 155.10
  A 0.30 0.30 0.0 0 0 47.09 154.88
  L 39.27 154.88"
/>
<path stroke="#ffffff" vector-effect="non-scaling-stroke" d="
  M 56.38 154.88
  A 0.32 0.32 0.0 0 0 56.07 155.28
  L 77.70 236.85
  A 0.32 0.32 0.0 0 0 78.32 236.85
  L 82.31 221.79
  A 0.32 0.32 0.0 0 0 82.31 221.63
  L 64.67 155.12
  A 0.32 0.32 0.0 0 0 64.36 154.88
  L 56.38 154.88"
/>
<path stroke="#ffffff" vector-effect="non-scaling-stroke" d="
  M 122.86 154.90
  A 0.36 0.36 0.0 0 0 122.51 155.17
  L 72.32 344.56
  A 0.36 0.36 0.0 0 0 72.67 345.01
  L 80.38 345.01
  A 0.36 0.36 0.0 0 0 80.73 344.74
  L 130.92 155.35
  A 0.36 0.36 0.0 0 0 130.57 154.90
  L 122.86 154.90"
/>
<path stroke="#ffffff" vector-effect="non-scaling-stroke" d="
  M 139.91 154.89
  A 0.37 0.37 0.0 0 0 139.56 155.17
  L 89.37 344.54
  A 0.37 0.37 0.0 0 0 89.73 345.00
  L 97.49 345.00
  A 0.37 0.37 0.0 0 0 97.84 344.72
  L 148.04 155.35
  A 0.37 0.37 0.0 0 0 147.68 154.89
  L 139.91 154.89"
/>
<path stroke="#ffffff" vector-effect="non-scaling-stroke" d="
  M 133.48 242.70
  Q 112.63 321.43 106.46 344.59
  A 0.34 0.34 0.0 0 0 106.79 345.02
  L 114.40 345.02
  A 0.77 0.76 7.4 0 0 115.14 344.45
  L 135.24 268.61
  A 0.20 0.20 0.0 0 1 135.63 268.60
  L 157.72 344.51
  A 0.71 0.69 -7.5 0 0 158.40 345.02
  L 166.09 345.02
  A 0.50 0.50 0.0 0 0 166.58 344.65
  Q 166.80 343.78 189.71 257.24
  Q 210.56 178.51 216.73 155.35
  A 0.34 0.34 0.0 0 0 216.40 154.92
  L 208.79 154.92
  A 0.77 0.76 7.4 0 0 208.05 155.49
  L 187.95 231.33
  A 0.20 0.20 0.0 0 1 187.56 231.34
  L 165.47 155.43
  A 0.71 0.69 -7.5 0 0 164.79 154.92
  L 157.10 154.92
  A 0.50 0.50 0.0 0 0 156.61 155.29
  Q 156.39 156.16 133.48 242.70"
/>
<path stroke="#ffffff" vector-effect="non-scaling-stroke" d="
  M 183.24 345.01
  A 0.37 0.37 0.0 0 0 183.59 344.73
  L 233.79 155.35
  A 0.37 0.37 0.0 0 0 233.43 154.89
  L 225.73 154.89
  A 0.37 0.37 0.0 0 0 225.38 155.17
  L 175.18 344.55
  A 0.37 0.37 0.0 0 0 175.54 345.01
  L 183.24 345.01"
/>
<path stroke="#ffffff" vector-effect="non-scaling-stroke" d="
  M 242.79 154.88
  A 0.38 0.38 0.0 0 0 242.43 155.16
  L 192.24 344.50
  A 0.38 0.38 0.0 0 0 192.60 344.98
  L 200.35 344.98
  A 0.38 0.38 0.0 0 0 200.71 344.70
  L 250.89 155.36
  A 0.38 0.38 0.0 0 0 250.53 154.88
  L 242.79 154.88"
/>
<path stroke="#ffffff" vector-effect="non-scaling-stroke" d="
  M 217.57 345.00
  A 0.37 0.37 0.0 0 0 217.92 344.72
  L 268.11 155.35
  A 0.37 0.37 0.0 0 0 267.75 154.89
  L 259.88 154.89
  A 0.37 0.37 0.0 0 0 259.53 155.17
  L 209.34 344.54
  A 0.37 0.37 0.0 0 0 209.70 345.00
  L 217.57 345.00"
/>
<path stroke="#ffffff" vector-effect="non-scaling-stroke" d="
  M 282.42 155.00
  A 0.36 0.36 0.0 0 0 282.07 155.27
  L 231.88 344.66
  A 0.36 0.36 0.0 0 0 232.23 345.11
  L 240.12 345.11
  A 0.36 0.36 0.0 0 0 240.47 344.84
  L 290.67 155.45
  A 0.36 0.36 0.0 0 0 290.32 155.00
  L 282.42 155.00"
/>
<path stroke="#ffffff" vector-effect="non-scaling-stroke" d="
  M 257.18 345.13
  A 0.43 0.43 0.0 0 0 257.59 344.81
  L 307.75 155.55
  A 0.43 0.43 0.0 0 0 307.33 155.01
  L 299.69 155.01
  A 0.43 0.43 0.0 0 0 299.28 155.33
  L 249.11 344.59
  A 0.43 0.43 0.0 0 0 249.53 345.13
  L 257.18 345.13"
/>
<path stroke="#ffffff" vector-effect="non-scaling-stroke" d="
  M 316.75 154.99
  A 0.36 0.36 0.0 0 0 316.40 155.26
  L 266.20 344.66
  A 0.36 0.36 0.0 0 0 266.55 345.11
  L 274.28 345.11
  A 0.36 0.36 0.0 0 0 274.63 344.84
  L 324.82 155.44
  A 0.36 0.36 0.0 0 0 324.47 154.99
  L 316.75 154.99"
/>
<path stroke="#ffffff" vector-effect="non-scaling-stroke" d="
  M 366.53 257.33
  Q 387.37 178.56 393.54 155.40
  A 0.34 0.34 0.0 0 0 393.21 154.96
  L 385.60 154.96
  A 0.77 0.76 7.4 0 0 384.85 155.53
  L 364.76 231.41
  A 0.20 0.20 0.0 0 1 364.37 231.42
  L 342.26 155.48
  A 0.71 0.69 -7.5 0 0 341.57 154.97
  L 333.88 154.97
  A 0.50 0.50 0.0 0 0 333.40 155.35
  Q 333.18 156.22 310.27 242.80
  Q 289.42 321.57 283.25 344.74
  A 0.34 0.34 0.0 0 0 283.58 345.17
  L 291.20 345.17
  A 0.77 0.76 7.4 0 0 291.94 344.60
  L 312.03 268.72
  A 0.20 0.20 0.0 0 1 312.42 268.71
  L 334.54 344.65
  A 0.71 0.69 -7.5 0 0 335.22 345.16
  L 342.91 345.16
  A 0.50 0.50 0.0 0 0 343.40 344.79
  Q 343.62 343.92 366.53 257.33"
/>
<path stroke="#ffffff" vector-effect="non-scaling-stroke" d="
  M 402.55 155.00
  A 0.43 0.43 0.0 0 0 402.14 155.32
  L 351.97 344.58
  A 0.43 0.43 0.0 0 0 352.39 345.12
  L 360.04 345.12
  A 0.43 0.43 0.0 0 0 360.45 344.80
  L 410.61 155.54
  A 0.43 0.43 0.0 0 0 410.19 155.00
  L 402.55 155.00"
/>
<path stroke="#ffffff" vector-effect="non-scaling-stroke" d="
  M 419.64 154.99
  A 0.40 0.40 0.0 0 0 419.25 155.29
  L 369.07 344.61
  A 0.40 0.40 0.0 0 0 369.46 345.11
  L 377.11 345.11
  A 0.40 0.40 0.0 0 0 377.50 344.81
  L 427.67 155.49
  A 0.40 0.40 0.0 0 0 427.28 154.99
  L 419.64 154.99"
/>
<path stroke="#ffffff" vector-effect="non-scaling-stroke" d="
  M 440.69 155.02
  Q 436.99 155.02 436.68 155.06
  A 0.53 0.52 -86.5 0 0 436.25 155.45
  L 386.04 344.91
  A 0.16 0.16 0.0 0 0 386.19 345.11
  L 394.44 345.11
  A 0.25 0.24 -81.9 0 0 394.67 344.93
  Q 417.61 258.42 440.49 172.08
  Q 440.55 171.88 440.69 171.88
  Q 440.82 171.88 440.87 172.08
  Q 463.72 258.43 486.63 344.95
  A 0.25 0.24 82.0 0 0 486.86 345.13
  L 495.11 345.13
  A 0.16 0.16 0.0 0 0 495.26 344.93
  L 445.12 155.45
  A 0.53 0.52 86.5 0 0 444.69 155.06
  Q 444.38 155.02 440.69 155.02"
/>
<path stroke="#ffffff" vector-effect="non-scaling-stroke" d="
  M 438.61 197.93
  L 435.11 212.63
  A 3.45 3.41 -46.0 0 0 435.13 214.34
  L 469.51 344.89
  A 0.30 0.30 0.0 0 0 469.80 345.11
  L 477.88 345.12
  A 0.16 0.16 0.0 0 0 478.04 344.92
  L 439.04 197.92
  A 0.22 0.22 0.0 0 0 438.61 197.93"
/>
<path stroke="#ffffff" vector-effect="non-scaling-stroke" d="
  M 460.73 345.13
  A 0.31 0.31 0.0 0 0 461.03 344.74
  L 430.76 230.64
  A 0.31 0.31 0.0 0 0 430.16 230.64
  L 426.26 245.37
  A 0.31 0.31 0.0 0 0 426.26 245.53
  L 452.61 344.90
  A 0.31 0.31 0.0 0 0 452.91 345.13
  L 460.73 345.13"
/>
<path stroke="#ffffff" vector-effect="non-scaling-stroke" d="
  M 421.84 262.77
  L 417.80 277.73
  A 1.76 1.69 -46.1 0 0 417.80 278.66
  L 435.29 344.86
  A 0.36 0.36 0.0 0 0 435.64 345.13
  L 443.79 345.13
  A 0.16 0.16 0.0 0 0 443.95 344.93
  L 422.24 262.77
  A 0.21 0.21 0.0 0 0 421.84 262.77"
/>
<path stroke="#ffffff" vector-effect="non-scaling-stroke" d="
  M 165.97 218.96
  Q 171.46 238.20 179.01 264.02
  A 0.16 0.16 0.0 0 0 179.33 264.02
  L 183.25 249.22
  A 2.67 2.64 -45.8 0 0 183.24 247.81
  Q 175.65 221.24 174.29 216.49
  Q 168.79 197.24 161.24 171.42
  A 0.16 0.16 0.0 0 0 160.92 171.42
  L 157.00 186.22
  A 2.67 2.64 -45.8 0 0 157.01 187.64
  Q 164.60 214.20 165.97 218.96"
/>
<path stroke="#ffffff" vector-effect="non-scaling-stroke" d="
  M 157.42 251.14
  Q 162.91 270.32 170.46 296.05
  A 0.16 0.16 0.0 0 0 170.77 296.05
  L 174.67 281.29
  A 2.66 2.63 -45.8 0 0 174.66 279.88
  Q 167.07 253.41 165.71 248.67
  Q 160.21 229.50 152.66 203.76
  A 0.16 0.16 0.0 0 0 152.34 203.77
  L 148.45 218.52
  A 2.66 2.63 -45.8 0 0 148.46 219.93
  Q 156.05 246.40 157.42 251.14"
/>
<path stroke="#ffffff" vector-effect="non-scaling-stroke" d="
  M 157.17 281.26
  Q 151.69 262.02 144.14 236.21
  A 0.16 0.16 0.0 0 0 143.83 236.21
  L 139.91 251.00
  A 2.67 2.64 -45.7 0 0 139.92 252.41
  Q 147.49 278.97 148.85 283.72
  Q 154.35 302.96 161.89 328.77
  A 0.16 0.16 0.0 0 0 162.20 328.77
  L 166.13 313.98
  A 2.67 2.64 -45.7 0 0 166.12 312.57
  Q 158.54 286.01 157.17 281.26"
/>
<path stroke="#ffffff" vector-effect="non-scaling-stroke" d="
  M 342.84 218.78
  Q 348.33 237.97 355.86 263.72
  A 0.16 0.16 0.0 0 0 356.18 263.72
  L 360.08 248.95
  A 2.67 2.63 -45.8 0 0 360.07 247.55
  Q 352.50 221.05 351.14 216.31
  Q 345.65 197.12 338.12 171.37
  A 0.16 0.16 0.0 0 0 337.80 171.37
  L 333.89 186.13
  A 2.67 2.63 -45.8 0 0 333.90 187.54
  Q 341.48 214.03 342.84 218.78"
/>
<path stroke="#ffffff" vector-effect="non-scaling-stroke" d="
  M 342.58 248.83
  Q 337.09 229.65 329.54 203.91
  A 0.16 0.16 0.0 0 0 329.23 203.91
  L 325.33 218.67
  A 2.67 2.63 -45.8 0 0 325.34 220.08
  Q 332.92 246.56 334.28 251.30
  Q 339.78 270.48 347.33 296.22
  A 0.16 0.16 0.0 0 0 347.64 296.22
  L 351.54 281.46
  A 2.67 2.63 -45.8 0 0 351.53 280.05
  Q 343.95 253.57 342.58 248.83"
/>
<path stroke="#ffffff" vector-effect="non-scaling-stroke" d="
  M 334.04 281.09
  Q 328.55 261.88 321.01 236.10
  A 0.16 0.16 0.0 0 0 320.69 236.10
  L 316.78 250.88
  A 2.67 2.64 -45.8 0 0 316.79 252.29
  Q 324.37 278.81 325.73 283.56
  Q 331.23 302.77 338.77 328.54
  A 0.16 0.16 0.0 0 0 339.08 328.54
  L 342.99 313.77
  A 2.67 2.64 -45.8 0 0 342.99 312.36
  Q 335.40 285.83 334.04 281.09"
/>
</g>
<path fill="transparent" d="
  M 500.00 0.00
  L 500.00 500.00
  L 0.00 500.00
  L 0.00 0.00
  L 500.00 0.00
  Z
  M 59.31 344.99
  Q 63.01 345.00 63.32 344.95
  A 0.53 0.52 -86.5 0 0 63.75 344.56
  L 113.96 155.09
  A 0.16 0.16 0.0 0 0 113.81 154.89
  L 105.56 154.89
  A 0.25 0.24 -81.9 0 0 105.33 155.07
  Q 82.39 241.59 59.51 327.94
  Q 59.45 328.13 59.31 328.13
  Q 59.18 328.13 59.13 327.94
  Q 36.28 241.58 13.37 155.05
  A 0.25 0.24 82.0 0 0 13.14 154.87
  L 4.89 154.87
  A 0.16 0.16 0.0 0 0 4.74 155.07
  L 54.88 344.56
  A 0.53 0.52 86.5 0 0 55.31 344.95
  Q 55.62 344.99 59.31 344.99
  Z
  M 22.33 154.86
  A 0.33 0.33 0.0 0 0 22.01 155.27
  L 60.77 301.43
  A 0.33 0.33 0.0 0 0 61.41 301.43
  L 65.27 286.86
  A 0.33 0.33 0.0 0 0 65.27 286.70
  L 30.38 155.11
  A 0.33 0.33 0.0 0 0 30.06 154.86
  L 22.33 154.86
  Z
  M 39.27 154.88
  A 0.30 0.30 0.0 0 0 38.98 155.26
  L 69.25 269.38
  A 0.30 0.30 0.0 0 0 69.83 269.38
  L 73.73 254.64
  A 0.30 0.30 0.0 0 0 73.73 254.48
  L 47.38 155.10
  A 0.30 0.30 0.0 0 0 47.09 154.88
  L 39.27 154.88
  Z
  M 56.38 154.88
  A 0.32 0.32 0.0 0 0 56.07 155.28
  L 77.70 236.85
  A 0.32 0.32 0.0 0 0 78.32 236.85
  L 82.31 221.79
  A 0.32 0.32 0.0 0 0 82.31 221.63
  L 64.67 155.12
  A 0.32 0.32 0.0 0 0 64.36 154.88
  L 56.38 154.88
  Z
  M 122.86 154.90
  A 0.36 0.36 0.0 0 0 122.51 155.17
  L 72.32 344.56
  A 0.36 0.36 0.0 0 0 72.67 345.01
  L 80.38 345.01
  A 0.36 0.36 0.0 0 0 80.73 344.74
  L 130.92 155.35
  A 0.36 0.36 0.0 0 0 130.57 154.90
  L 122.86 154.90
  Z
  M 139.91 154.89
  A 0.37 0.37 0.0 0 0 139.56 155.17
  L 89.37 344.54
  A 0.37 0.37 0.0 0 0 89.73 345.00
  L 97.49 345.00
  A 0.37 0.37 0.0 0 0 97.84 344.72
  L 148.04 155.35
  A 0.37 0.37 0.0 0 0 147.68 154.89
  L 139.91 154.89
  Z
  M 133.48 242.70
  Q 112.63 321.43 106.46 344.59
  A 0.34 0.34 0.0 0 0 106.79 345.02
  L 114.40 345.02
  A 0.77 0.76 7.4 0 0 115.14 344.45
  L 135.24 268.61
  A 0.20 0.20 0.0 0 1 135.63 268.60
  L 157.72 344.51
  A 0.71 0.69 -7.5 0 0 158.40 345.02
  L 166.09 345.02
  A 0.50 0.50 0.0 0 0 166.58 344.65
  Q 166.80 343.78 189.71 257.24
  Q 210.56 178.51 216.73 155.35
  A 0.34 0.34 0.0 0 0 216.40 154.92
  L 208.79 154.92
  A 0.77 0.76 7.4 0 0 208.05 155.49
  L 187.95 231.33
  A 0.20 0.20 0.0 0 1 187.56 231.34
  L 165.47 155.43
  A 0.71 0.69 -7.5 0 0 164.79 154.92
  L 157.10 154.92
  A 0.50 0.50 0.0 0 0 156.61 155.29
  Q 156.39 156.16 133.48 242.70
  Z
  M 183.24 345.01
  A 0.37 0.37 0.0 0 0 183.59 344.73
  L 233.79 155.35
  A 0.37 0.37 0.0 0 0 233.43 154.89
  L 225.73 154.89
  A 0.37 0.37 0.0 0 0 225.38 155.17
  L 175.18 344.55
  A 0.37 0.37 0.0 0 0 175.54 345.01
  L 183.24 345.01
  Z
  M 242.79 154.88
  A 0.38 0.38 0.0 0 0 242.43 155.16
  L 192.24 344.50
  A 0.38 0.38 0.0 0 0 192.60 344.98
  L 200.35 344.98
  A 0.38 0.38 0.0 0 0 200.71 344.70
  L 250.89 155.36
  A 0.38 0.38 0.0 0 0 250.53 154.88
  L 242.79 154.88
  Z
  M 217.57 345.00
  A 0.37 0.37 0.0 0 0 217.92 344.72
  L 268.11 155.35
  A 0.37 0.37 0.0 0 0 267.75 154.89
  L 259.88 154.89
  A 0.37 0.37 0.0 0 0 259.53 155.17
  L 209.34 344.54
  A 0.37 0.37 0.0 0 0 209.70 345.00
  L 217.57 345.00
  Z
  M 282.42 155.00
  A 0.36 0.36 0.0 0 0 282.07 155.27
  L 231.88 344.66
  A 0.36 0.36 0.0 0 0 232.23 345.11
  L 240.12 345.11
  A 0.36 0.36 0.0 0 0 240.47 344.84
  L 290.67 155.45
  A 0.36 0.36 0.0 0 0 290.32 155.00
  L 282.42 155.00
  Z
  M 257.18 345.13
  A 0.43 0.43 0.0 0 0 257.59 344.81
  L 307.75 155.55
  A 0.43 0.43 0.0 0 0 307.33 155.01
  L 299.69 155.01
  A 0.43 0.43 0.0 0 0 299.28 155.33
  L 249.11 344.59
  A 0.43 0.43 0.0 0 0 249.53 345.13
  L 257.18 345.13
  Z
  M 316.75 154.99
  A 0.36 0.36 0.0 0 0 316.40 155.26
  L 266.20 344.66
  A 0.36 0.36 0.0 0 0 266.55 345.11
  L 274.28 345.11
  A 0.36 0.36 0.0 0 0 274.63 344.84
  L 324.82 155.44
  A 0.36 0.36 0.0 0 0 324.47 154.99
  L 316.75 154.99
  Z
  M 366.53 257.33
  Q 387.37 178.56 393.54 155.40
  A 0.34 0.34 0.0 0 0 393.21 154.96
  L 385.60 154.96
  A 0.77 0.76 7.4 0 0 384.85 155.53
  L 364.76 231.41
  A 0.20 0.20 0.0 0 1 364.37 231.42
  L 342.26 155.48
  A 0.71 0.69 -7.5 0 0 341.57 154.97
  L 333.88 154.97
  A 0.50 0.50 0.0 0 0 333.40 155.35
  Q 333.18 156.22 310.27 242.80
  Q 289.42 321.57 283.25 344.74
  A 0.34 0.34 0.0 0 0 283.58 345.17
  L 291.20 345.17
  A 0.77 0.76 7.4 0 0 291.94 344.60
  L 312.03 268.72
  A 0.20 0.20 0.0 0 1 312.42 268.71
  L 334.54 344.65
  A 0.71 0.69 -7.5 0 0 335.22 345.16
  L 342.91 345.16
  A 0.50 0.50 0.0 0 0 343.40 344.79
  Q 343.62 343.92 366.53 257.33
  Z
  M 402.55 155.00
  A 0.43 0.43 0.0 0 0 402.14 155.32
  L 351.97 344.58
  A 0.43 0.43 0.0 0 0 352.39 345.12
  L 360.04 345.12
  A 0.43 0.43 0.0 0 0 360.45 344.80
  L 410.61 155.54
  A 0.43 0.43 0.0 0 0 410.19 155.00
  L 402.55 155.00
  Z
  M 419.64 154.99
  A 0.40 0.40 0.0 0 0 419.25 155.29
  L 369.07 344.61
  A 0.40 0.40 0.0 0 0 369.46 345.11
  L 377.11 345.11
  A 0.40 0.40 0.0 0 0 377.50 344.81
  L 427.67 155.49
  A 0.40 0.40 0.0 0 0 427.28 154.99
  L 419.64 154.99
  Z
  M 440.69 155.02
  Q 436.99 155.02 436.68 155.06
  A 0.53 0.52 -86.5 0 0 436.25 155.45
  L 386.04 344.91
  A 0.16 0.16 0.0 0 0 386.19 345.11
  L 394.44 345.11
  A 0.25 0.24 -81.9 0 0 394.67 344.93
  Q 417.61 258.42 440.49 172.08
  Q 440.55 171.88 440.69 171.88
  Q 440.82 171.88 440.87 172.08
  Q 463.72 258.43 486.63 344.95
  A 0.25 0.24 82.0 0 0 486.86 345.13
  L 495.11 345.13
  A 0.16 0.16 0.0 0 0 495.26 344.93
  L 445.12 155.45
  A 0.53 0.52 86.5 0 0 444.69 155.06
  Q 444.38 155.02 440.69 155.02
  Z
  M 438.61 197.93
  L 435.11 212.63
  A 3.45 3.41 -46.0 0 0 435.13 214.34
  L 469.51 344.89
  A 0.30 0.30 0.0 0 0 469.80 345.11
  L 477.88 345.12
  A 0.16 0.16 0.0 0 0 478.04 344.92
  L 439.04 197.92
  A 0.22 0.22 0.0 0 0 438.61 197.93
  Z
  M 460.73 345.13
  A 0.31 0.31 0.0 0 0 461.03 344.74
  L 430.76 230.64
  A 0.31 0.31 0.0 0 0 430.16 230.64
  L 426.26 245.37
  A 0.31 0.31 0.0 0 0 426.26 245.53
  L 452.61 344.90
  A 0.31 0.31 0.0 0 0 452.91 345.13
  L 460.73 345.13
  Z
  M 421.84 262.77
  L 417.80 277.73
  A 1.76 1.69 -46.1 0 0 417.80 278.66
  L 435.29 344.86
  A 0.36 0.36 0.0 0 0 435.64 345.13
  L 443.79 345.13
  A 0.16 0.16 0.0 0 0 443.95 344.93
  L 422.24 262.77
  A 0.21 0.21 0.0 0 0 421.84 262.77
  Z"
/>
<path fill="#ff3131" d="
  M 59.31 328.13
  Q 59.45 328.13 59.51 327.94
  Q 82.39 241.59 105.33 155.07
  A 0.25 0.24 -81.9 0 1 105.56 154.89
  L 113.81 154.89
  A 0.16 0.16 0.0 0 1 113.96 155.09
  L 63.75 344.56
  A 0.53 0.52 -86.5 0 1 63.32 344.95
  Q 63.01 345.00 59.31 344.99
  Q 55.62 344.99 55.31 344.95
  A 0.53 0.52 86.5 0 1 54.88 344.56
  L 4.74 155.07
  A 0.16 0.16 0.0 0 1 4.89 154.87
  L 13.14 154.87
  A 0.25 0.24 82.0 0 1 13.37 155.05
  Q 36.28 241.58 59.13 327.94
  Q 59.18 328.13 59.31 328.13
  Z"
/>
<path fill="#ff3131" d="
  M 22.33 154.86
  L 30.06 154.86
  A 0.33 0.33 0.0 0 1 30.38 155.11
  L 65.27 286.70
  A 0.33 0.33 0.0 0 1 65.27 286.86
  L 61.41 301.43
  A 0.33 0.33 0.0 0 1 60.77 301.43
  L 22.01 155.27
  A 0.33 0.33 0.0 0 1 22.33 154.86
  Z"
/>
<path fill="#ff3131" d="
  M 39.27 154.88
  L 47.09 154.88
  A 0.30 0.30 0.0 0 1 47.38 155.10
  L 73.73 254.48
  A 0.30 0.30 0.0 0 1 73.73 254.64
  L 69.83 269.38
  A 0.30 0.30 0.0 0 1 69.25 269.38
  L 38.98 155.26
  A 0.30 0.30 0.0 0 1 39.27 154.88
  Z"
/>
<path fill="#ff3131" d="
  M 56.38 154.88
  L 64.36 154.88
  A 0.32 0.32 0.0 0 1 64.67 155.12
  L 82.31 221.63
  A 0.32 0.32 0.0 0 1 82.31 221.79
  L 78.32 236.85
  A 0.32 0.32 0.0 0 1 77.70 236.85
  L 56.07 155.28
  A 0.32 0.32 0.0 0 1 56.38 154.88
  Z"
/>
<path fill="#ff3131" d="
  M 122.86 154.90
  L 130.57 154.90
  A 0.36 0.36 0.0 0 1 130.92 155.35
  L 80.73 344.74
  A 0.36 0.36 0.0 0 1 80.38 345.01
  L 72.67 345.01
  A 0.36 0.36 0.0 0 1 72.32 344.56
  L 122.51 155.17
  A 0.36 0.36 0.0 0 1 122.86 154.90
  Z"
/>
<path fill="#ff3131" d="
  M 139.91 154.89
  L 147.68 154.89
  A 0.37 0.37 0.0 0 1 148.04 155.35
  L 97.84 344.72
  A 0.37 0.37 0.0 0 1 97.49 345.00
  L 89.73 345.00
  A 0.37 0.37 0.0 0 1 89.37 344.54
  L 139.56 155.17
  A 0.37 0.37 0.0 0 1 139.91 154.89
  Z"
/>
<path fill="#ff3131" d="
  M 189.71 257.24
  Q 166.80 343.78 166.58 344.65
  A 0.50 0.50 0.0 0 1 166.09 345.02
  L 158.40 345.02
  A 0.71 0.69 -7.5 0 1 157.72 344.51
  L 135.63 268.60
  A 0.20 0.20 0.0 0 0 135.24 268.61
  L 115.14 344.45
  A 0.77 0.76 7.4 0 1 114.40 345.02
  L 106.79 345.02
  A 0.34 0.34 0.0 0 1 106.46 344.59
  Q 112.63 321.43 133.48 242.70
  Q 156.39 156.16 156.61 155.29
  A 0.50 0.50 0.0 0 1 157.10 154.92
  L 164.79 154.92
  A 0.71 0.69 -7.5 0 1 165.47 155.43
  L 187.56 231.34
  A 0.20 0.20 0.0 0 0 187.95 231.33
  L 208.05 155.49
  A 0.77 0.76 7.4 0 1 208.79 154.92
  L 216.40 154.92
  A 0.34 0.34 0.0 0 1 216.73 155.35
  Q 210.56 178.51 189.71 257.24
  Z
  M 165.97 218.96
  Q 171.46 238.20 179.01 264.02
  A 0.16 0.16 0.0 0 0 179.33 264.02
  L 183.25 249.22
  A 2.67 2.64 -45.8 0 0 183.24 247.81
  Q 175.65 221.24 174.29 216.49
  Q 168.79 197.24 161.24 171.42
  A 0.16 0.16 0.0 0 0 160.92 171.42
  L 157.00 186.22
  A 2.67 2.64 -45.8 0 0 157.01 187.64
  Q 164.60 214.20 165.97 218.96
  Z
  M 157.42 251.14
  Q 162.91 270.32 170.46 296.05
  A 0.16 0.16 0.0 0 0 170.77 296.05
  L 174.67 281.29
  A 2.66 2.63 -45.8 0 0 174.66 279.88
  Q 167.07 253.41 165.71 248.67
  Q 160.21 229.50 152.66 203.76
  A 0.16 0.16 0.0 0 0 152.34 203.77
  L 148.45 218.52
  A 2.66 2.63 -45.8 0 0 148.46 219.93
  Q 156.05 246.40 157.42 251.14
  Z
  M 157.17 281.26
  Q 151.69 262.02 144.14 236.21
  A 0.16 0.16 0.0 0 0 143.83 236.21
  L 139.91 251.00
  A 2.67 2.64 -45.7 0 0 139.92 252.41
  Q 147.49 278.97 148.85 283.72
  Q 154.35 302.96 161.89 328.77
  A 0.16 0.16 0.0 0 0 162.20 328.77
  L 166.13 313.98
  A 2.67 2.64 -45.7 0 0 166.12 312.57
  Q 158.54 286.01 157.17 281.26
  Z"
/>
<path fill="#ff3131" d="
  M 183.24 345.01
  L 175.54 345.01
  A 0.37 0.37 0.0 0 1 175.18 344.55
  L 225.38 155.17
  A 0.37 0.37 0.0 0 1 225.73 154.89
  L 233.43 154.89
  A 0.37 0.37 0.0 0 1 233.79 155.35
  L 183.59 344.73
  A 0.37 0.37 0.0 0 1 183.24 345.01
  Z"
/>
<path fill="#ff3131" d="
  M 242.79 154.88
  L 250.53 154.88
  A 0.38 0.38 0.0 0 1 250.89 155.36
  L 200.71 344.70
  A 0.38 0.38 0.0 0 1 200.35 344.98
  L 192.60 344.98
  A 0.38 0.38 0.0 0 1 192.24 344.50
  L 242.43 155.16
  A 0.38 0.38 0.0 0 1 242.79 154.88
  Z"
/>
<path fill="#ff3131" d="
  M 217.57 345.00
  L 209.70 345.00
  A 0.37 0.37 0.0 0 1 209.34 344.54
  L 259.53 155.17
  A 0.37 0.37 0.0 0 1 259.88 154.89
  L 267.75 154.89
  A 0.37 0.37 0.0 0 1 268.11 155.35
  L 217.92 344.72
  A 0.37 0.37 0.0 0 1 217.57 345.00
  Z"
/>
<path fill="#38b6ff" d="
  M 282.42 155.00
  L 290.32 155.00
  A 0.36 0.36 0.0 0 1 290.67 155.45
  L 240.47 344.84
  A 0.36 0.36 0.0 0 1 240.12 345.11
  L 232.23 345.11
  A 0.36 0.36 0.0 0 1 231.88 344.66
  L 282.07 155.27
  A 0.36 0.36 0.0 0 1 282.42 155.00
  Z"
/>
<path fill="#38b6ff" d="
  M 257.18 345.13
  L 249.53 345.13
  A 0.43 0.43 0.0 0 1 249.11 344.59
  L 299.28 155.33
  A 0.43 0.43 0.0 0 1 299.69 155.01
  L 307.33 155.01
  A 0.43 0.43 0.0 0 1 307.75 155.55
  L 257.59 344.81
  A 0.43 0.43 0.0 0 1 257.18 345.13
  Z"
/>
<path fill="#38b6ff" d="
  M 316.75 154.99
  L 324.47 154.99
  A 0.36 0.36 0.0 0 1 324.82 155.44
  L 274.63 344.84
  A 0.36 0.36 0.0 0 1 274.28 345.11
  L 266.55 345.11
  A 0.36 0.36 0.0 0 1 266.20 344.66
  L 316.40 155.26
  A 0.36 0.36 0.0 0 1 316.75 154.99
  Z"
/>
<path fill="#38b6ff" d="
  M 366.53 257.33
  Q 343.62 343.92 343.40 344.79
  A 0.50 0.50 0.0 0 1 342.91 345.16
  L 335.22 345.16
  A 0.71 0.69 -7.5 0 1 334.54 344.65
  L 312.42 268.71
  A 0.20 0.20 0.0 0 0 312.03 268.72
  L 291.94 344.60
  A 0.77 0.76 7.4 0 1 291.20 345.17
  L 283.58 345.17
  A 0.34 0.34 0.0 0 1 283.25 344.74
  Q 289.42 321.57 310.27 242.80
  Q 333.18 156.22 333.40 155.35
  A 0.50 0.50 0.0 0 1 333.88 154.97
  L 341.57 154.97
  A 0.71 0.69 -7.5 0 1 342.26 155.48
  L 364.37 231.42
  A 0.20 0.20 0.0 0 0 364.76 231.41
  L 384.85 155.53
  A 0.77 0.76 7.4 0 1 385.60 154.96
  L 393.21 154.96
  A 0.34 0.34 0.0 0 1 393.54 155.40
  Q 387.37 178.56 366.53 257.33
  Z
  M 342.84 218.78
  Q 348.33 237.97 355.86 263.72
  A 0.16 0.16 0.0 0 0 356.18 263.72
  L 360.08 248.95
  A 2.67 2.63 -45.8 0 0 360.07 247.55
  Q 352.50 221.05 351.14 216.31
  Q 345.65 197.12 338.12 171.37
  A 0.16 0.16 0.0 0 0 337.80 171.37
  L 333.89 186.13
  A 2.67 2.63 -45.8 0 0 333.90 187.54
  Q 341.48 214.03 342.84 218.78
  Z
  M 342.58 248.83
  Q 337.09 229.65 329.54 203.91
  A 0.16 0.16 0.0 0 0 329.23 203.91
  L 325.33 218.67
  A 2.67 2.63 -45.8 0 0 325.34 220.08
  Q 332.92 246.56 334.28 251.30
  Q 339.78 270.48 347.33 296.22
  A 0.16 0.16 0.0 0 0 347.64 296.22
  L 351.54 281.46
  A 2.67 2.63 -45.8 0 0 351.53 280.05
  Q 343.95 253.57 342.58 248.83
  Z
  M 334.04 281.09
  Q 328.55 261.88 321.01 236.10
  A 0.16 0.16 0.0 0 0 320.69 236.10
  L 316.78 250.88
  A 2.67 2.64 -45.8 0 0 316.79 252.29
  Q 324.37 278.81 325.73 283.56
  Q 331.23 302.77 338.77 328.54
  A 0.16 0.16 0.0 0 0 339.08 328.54
  L 342.99 313.77
  A 2.67 2.64 -45.8 0 0 342.99 312.36
  Q 335.40 285.83 334.04 281.09
  Z"
/>
<path fill="#38b6ff" d="
  M 402.55 155.00
  L 410.19 155.00
  A 0.43 0.43 0.0 0 1 410.61 155.54
  L 360.45 344.80
  A 0.43 0.43 0.0 0 1 360.04 345.12
  L 352.39 345.12
  A 0.43 0.43 0.0 0 1 351.97 344.58
  L 402.14 155.32
  A 0.43 0.43 0.0 0 1 402.55 155.00
  Z"
/>
<path fill="#38b6ff" d="
  M 419.64 154.99
  L 427.28 154.99
  A 0.40 0.40 0.0 0 1 427.67 155.49
  L 377.50 344.81
  A 0.40 0.40 0.0 0 1 377.11 345.11
  L 369.46 345.11
  A 0.40 0.40 0.0 0 1 369.07 344.61
  L 419.25 155.29
  A 0.40 0.40 0.0 0 1 419.64 154.99
  Z"
/>
<path fill="#38b6ff" d="
  M 440.69 155.02
  Q 444.38 155.02 444.69 155.06
  A 0.53 0.52 86.5 0 1 445.12 155.45
  L 495.26 344.93
  A 0.16 0.16 0.0 0 1 495.11 345.13
  L 486.86 345.13
  A 0.25 0.24 82.0 0 1 486.63 344.95
  Q 463.72 258.43 440.87 172.08
  Q 440.82 171.88 440.69 171.88
  Q 440.55 171.88 440.49 172.08
  Q 417.61 258.42 394.67 344.93
  A 0.25 0.24 -81.9 0 1 394.44 345.11
  L 386.19 345.11
  A 0.16 0.16 0.0 0 1 386.04 344.91
  L 436.25 155.45
  A 0.53 0.52 -86.5 0 1 436.68 155.06
  Q 436.99 155.02 440.69 155.02
  Z"
/>
<path fill="transparent" d="
  M 174.29 216.49
  Q 175.65 221.24 183.24 247.81
  A 2.67 2.64 -45.8 0 1 183.25 249.22
  L 179.33 264.02
  A 0.16 0.16 0.0 0 1 179.01 264.02
  Q 171.46 238.20 165.97 218.96
  Q 164.60 214.20 157.01 187.64
  A 2.67 2.64 -45.8 0 1 157.00 186.22
  L 160.92 171.42
  A 0.16 0.16 0.0 0 1 161.24 171.42
  Q 168.79 197.24 174.29 216.49
  Z"
/>
<path fill="transparent" d="
  M 342.84 218.78
  Q 341.48 214.03 333.90 187.54
  A 2.67 2.63 -45.8 0 1 333.89 186.13
  L 337.80 171.37
  A 0.16 0.16 0.0 0 1 338.12 171.37
  Q 345.65 197.12 351.14 216.31
  Q 352.50 221.05 360.07 247.55
  A 2.67 2.63 -45.8 0 1 360.08 248.95
  L 356.18 263.72
  A 0.16 0.16 0.0 0 1 355.86 263.72
  Q 348.33 237.97 342.84 218.78
  Z"
/>
<path fill="#38b6ff" d="
  M 438.61 197.93
  A 0.22 0.22 0.0 0 1 439.04 197.92
  L 478.04 344.92
  A 0.16 0.16 0.0 0 1 477.88 345.12
  L 469.80 345.11
  A 0.30 0.30 0.0 0 1 469.51 344.89
  L 435.13 214.34
  A 3.45 3.41 -46.0 0 1 435.11 212.63
  L 438.61 197.93
  Z"
/>
<path fill="transparent" d="
  M 157.42 251.14
  Q 156.05 246.40 148.46 219.93
  A 2.66 2.63 -45.8 0 1 148.45 218.52
  L 152.34 203.77
  A 0.16 0.16 0.0 0 1 152.66 203.76
  Q 160.21 229.50 165.71 248.67
  Q 167.07 253.41 174.66 279.88
  A 2.66 2.63 -45.8 0 1 174.67 281.29
  L 170.77 296.05
  A 0.16 0.16 0.0 0 1 170.46 296.05
  Q 162.91 270.32 157.42 251.14
  Z"
/>
<path fill="transparent" d="
  M 342.58 248.83
  Q 343.95 253.57 351.53 280.05
  A 2.67 2.63 -45.8 0 1 351.54 281.46
  L 347.64 296.22
  A 0.16 0.16 0.0 0 1 347.33 296.22
  Q 339.78 270.48 334.28 251.30
  Q 332.92 246.56 325.34 220.08
  A 2.67 2.63 -45.8 0 1 325.33 218.67
  L 329.23 203.91
  A 0.16 0.16 0.0 0 1 329.54 203.91
  Q 337.09 229.65 342.58 248.83
  Z"
/>
<path fill="#38b6ff" d="
  M 460.73 345.13
  L 452.91 345.13
  A 0.31 0.31 0.0 0 1 452.61 344.90
  L 426.26 245.53
  A 0.31 0.31 0.0 0 1 426.26 245.37
  L 430.16 230.64
  A 0.31 0.31 0.0 0 1 430.76 230.64
  L 461.03 344.74
  A 0.31 0.31 0.0 0 1 460.73 345.13
  Z"
/>
<path fill="transparent" d="
  M 157.17 281.26
  Q 158.54 286.01 166.12 312.57
  A 2.67 2.64 -45.7 0 1 166.13 313.98
  L 162.20 328.77
  A 0.16 0.16 0.0 0 1 161.89 328.77
  Q 154.35 302.96 148.85 283.72
  Q 147.49 278.97 139.92 252.41
  A 2.67 2.64 -45.7 0 1 139.91 251.00
  L 143.83 236.21
  A 0.16 0.16 0.0 0 1 144.14 236.21
  Q 151.69 262.02 157.17 281.26
  Z"
/>
<path fill="transparent" d="
  M 334.04 281.09
  Q 335.40 285.83 342.99 312.36
  A 2.67 2.64 -45.8 0 1 342.99 313.77
  L 339.08 328.54
  A 0.16 0.16 0.0 0 1 338.77 328.54
  Q 331.23 302.77 325.73 283.56
  Q 324.37 278.81 316.79 252.29
  A 2.67 2.64 -45.8 0 1 316.78 250.88
  L 320.69 236.10
  A 0.16 0.16 0.0 0 1 321.01 236.10
  Q 328.55 261.88 334.04 281.09
  Z"
/>
<path fill="#38b6ff" d="
  M 421.84 262.77
  A 0.21 0.21 0.0 0 1 422.24 262.77
  L 443.95 344.93
  A 0.16 0.16 0.0 0 1 443.79 345.13
  L 435.64 345.13
  A 0.36 0.36 0.0 0 1 435.29 344.86
  L 417.80 278.66
  A 1.76 1.69 -46.1 0 1 417.80 277.73
  L 421.84 262.77
  Z"
/>
</svg>
