<?xml version="1.0" encoding="UTF-8" standalone="no"?>
<!DOCTYPE svg PUBLIC "-//W3C//DTD SVG 1.1//EN" "http://www.w3.org/Graphics/SVG/1.1/DTD/svg11.dtd">
<svg xmlns="http://www.w3.org/2000/svg" version="1.1" viewBox="0.00 0.00 100.00 100.00">
<g stroke-width="10.00" fill="none" stroke-linecap="butt">
<path stroke="#a1d9ff" vector-effect="non-scaling-stroke" d="
  M 100.00 70.70
  Q 98.14 67.42 98.02 64.50
  Q 97.27 47.07 96.58 27.58
  A 0.42 0.41 -0.7 0 0 96.16 27.18
  L 84.70 27.18
  A 1.29 1.27 13.0 0 0 83.55 27.89
  L 70.86 53.72
  A 0.22 0.22 0.0 0 1 70.44 53.65
  L 67.33 27.70
  A 0.64 0.63 85.6 0 0 66.68 27.14
  L 59.95 27.35"
/>
<path stroke="#e699a1" vector-effect="non-scaling-stroke" d="
  M 59.95 27.35
  L 52.23 27.44
  A 0.67 0.66 -82.6 0 0 51.59 27.94
  L 43.48 58.85"
/>
<path stroke="#ffa2a0" vector-effect="non-scaling-stroke" d="
  M 43.48 58.85
  L 38.68 27.89
  A 0.75 0.75 0.0 0 0 37.94 27.26
  L 29.94 27.26
  A 0.46 0.45 -78.2 0 0 29.52 27.54
  L 15.86 57.79
  A 0.27 0.27 0.0 0 1 15.35 57.67
  Q 15.57 46.13 15.39 35.78
  C 15.30 30.68 13.43 26.81 7.85 25.98
  Q 3.47 25.33 0.00 27.64"
/>
<path stroke="#e53b42" vector-effect="non-scaling-stroke" d="
  M 43.48 58.85
  L 39.01 74.88"
/>
<path stroke="#ffa2a0" vector-effect="non-scaling-stroke" d="
  M 39.01 74.88
  L 32.67 75.00
  A 0.92 0.90 -3.5 0 1 31.75 74.20
  L 28.67 48.53
  A 0.25 0.25 0.0 0 0 28.19 48.45
  L 15.64 73.99
  A 1.65 1.64 -77.0 0 1 14.16 74.92
  L 3.14 74.92
  A 0.64 0.64 0.0 0 1 2.50 74.30
  Q 1.86 55.44 1.08 38.50
  Q 1.01 37.05 0.00 32.99"
/>
<path stroke="#a1d9ff" vector-effect="non-scaling-stroke" d="
  M 100.00 73.81
  Q 95.47 77.17 90.22 75.92
  C 85.01 74.67 83.76 70.66 83.69 66.00
  Q 83.53 55.08 83.81 44.06
  A 0.17 0.16 -21.2 0 0 83.53 43.94
  Q 83.08 44.38 82.78 45.04
  Q 75.75 60.88 69.89 73.84
  A 1.70 1.70 0.0 0 1 68.34 74.84
  L 61.02 74.84
  A 0.65 0.64 85.2 0 1 60.39 74.30
  L 55.57 43.06"
/>
<path stroke="#8772a1" vector-effect="non-scaling-stroke" d="
  M 55.57 43.06
  L 59.95 27.35"
/>
<path stroke="#e699a1" vector-effect="non-scaling-stroke" d="
  M 55.57 43.06
  L 47.32 74.28
  A 0.69 0.68 -82.2 0 1 46.66 74.79
  L 39.01 74.88"
/>
</g>
<path fill="transparent" d="
  M 100.00 0.00
  L 100.00 70.70
  Q 98.14 67.42 98.02 64.50
  Q 97.27 47.07 96.58 27.58
  A 0.42 0.41 -0.7 0 0 96.16 27.18
  L 84.70 27.18
  A 1.29 1.27 13.0 0 0 83.55 27.89
  L 70.86 53.72
  A 0.22 0.22 0.0 0 1 70.44 53.65
  L 67.33 27.70
  A 0.64 0.63 85.6 0 0 66.68 27.14
  L 59.95 27.35
  L 52.23 27.44
  A 0.67 0.66 -82.6 0 0 51.59 27.94
  L 43.48 58.85
  L 38.68 27.89
  A 0.75 0.75 0.0 0 0 37.94 27.26
  L 29.94 27.26
  A 0.46 0.45 -78.2 0 0 29.52 27.54
  L 15.86 57.79
  A 0.27 0.27 0.0 0 1 15.35 57.67
  Q 15.57 46.13 15.39 35.78
  C 15.30 30.68 13.43 26.81 7.85 25.98
  Q 3.47 25.33 0.00 27.64
  L 0.00 0.00
  L 100.00 0.00
  Z"
/>
<path fill="#fe4440" d="
  M 43.48 58.85
  L 39.01 74.88
  L 32.67 75.00
  A 0.92 0.90 -3.5 0 1 31.75 74.20
  L 28.67 48.53
  A 0.25 0.25 0.0 0 0 28.19 48.45
  L 15.64 73.99
  A 1.65 1.64 -77.0 0 1 14.16 74.92
  L 3.14 74.92
  A 0.64 0.64 0.0 0 1 2.50 74.30
  Q 1.86 55.44 1.08 38.50
  Q 1.01 37.05 0.00 32.99
  L 0.00 27.64
  Q 3.47 25.33 7.85 25.98
  C 13.43 26.81 15.30 30.68 15.39 35.78
  Q 15.57 46.13 15.35 57.67
  A 0.27 0.27 0.0 0 0 15.86 57.79
  L 29.52 27.54
  A 0.46 0.45 -78.2 0 1 29.94 27.26
  L 37.94 27.26
  A 0.75 0.75 0.0 0 1 38.68 27.89
  L 43.48 58.85
  Z"
/>
<path fill="#42b2fe" d="
  M 100.00 70.70
  L 100.00 73.81
  Q 95.47 77.17 90.22 75.92
  C 85.01 74.67 83.76 70.66 83.69 66.00
  Q 83.53 55.08 83.81 44.06
  A 0.17 0.16 -21.2 0 0 83.53 43.94
  Q 83.08 44.38 82.78 45.04
  Q 75.75 60.88 69.89 73.84
  A 1.70 1.70 0.0 0 1 68.34 74.84
  L 61.02 74.84
  A 0.65 0.64 85.2 0 1 60.39 74.30
  L 55.57 43.06
  L 59.95 27.35
  L 66.68 27.14
  A 0.64 0.63 85.6 0 1 67.33 27.70
  L 70.44 53.65
  A 0.22 0.22 0.0 0 0 70.86 53.72
  L 83.55 27.89
  A 1.29 1.27 13.0 0 1 84.70 27.18
  L 96.16 27.18
  A 0.42 0.41 -0.7 0 1 96.58 27.58
  Q 97.27 47.07 98.02 64.50
  Q 98.14 67.42 100.00 70.70
  Z"
/>
<path fill="#cc3243" d="
  M 59.95 27.35
  L 55.57 43.06
  L 47.32 74.28
  A 0.69 0.68 -82.2 0 1 46.66 74.79
  L 39.01 74.88
  L 43.48 58.85
  L 51.59 27.94
  A 0.67 0.66 -82.6 0 1 52.23 27.44
  L 59.95 27.35
  Z"
/>
<path fill="transparent" d="
  M 39.01 74.88
  L 46.66 74.79
  A 0.69 0.68 -82.2 0 0 47.32 74.28
  L 55.57 43.06
  L 60.39 74.30
  A 0.65 0.64 85.2 0 0 61.02 74.84
  L 68.34 74.84
  A 1.70 1.70 0.0 0 0 69.89 73.84
  Q 75.75 60.88 82.78 45.04
  Q 83.08 44.38 83.53 43.94
  A 0.17 0.16 -21.2 0 1 83.81 44.06
  Q 83.53 55.08 83.69 66.00
  C 83.76 70.66 85.01 74.67 90.22 75.92
  Q 95.47 77.17 100.00 73.81
  L 100.00 100.00
  L 0.00 100.00
  L 0.00 32.99
  Q 1.01 37.05 1.08 38.50
  Q 1.86 55.44 2.50 74.30
  A 0.64 0.64 0.0 0 0 3.14 74.92
  L 14.16 74.92
  A 1.65 1.64 -77.0 0 0 15.64 73.99
  L 28.19 48.45
  A 0.25 0.25 0.0 0 1 28.67 48.53
  L 31.75 74.20
  A 0.92 0.90 -3.5 0 0 32.67 75.00
  L 39.01 74.88
  Z"
/>
</svg>
